<svg width="46" height="44" viewBox="0 0 46 44" fill="none" xmlns="http://www.w3.org/2000/svg">
<rect x="0.5" y="0.5" width="45" height="43" rx="21.5" fill="#FFD500" stroke="#FFD500"/>
<path d="M13.7843 35V31.0114L23.1039 22.3821C23.8965 21.6151 24.5613 20.9247 25.0982 20.3111C25.6436 19.6974 26.057 19.0966 26.3382 18.5085C26.6195 17.9119 26.7601 17.2685 26.7601 16.5781C26.7601 15.8111 26.5854 15.1506 26.236 14.5966C25.8865 14.0341 25.4093 13.6037 24.8042 13.3054C24.199 12.9986 23.513 12.8452 22.7459 12.8452C21.9448 12.8452 21.2459 13.0071 20.6493 13.331C20.0527 13.6548 19.5925 14.1193 19.2686 14.7244C18.9448 15.3295 18.7828 16.0497 18.7828 16.8849H13.5286C13.5286 15.1719 13.9164 13.6847 14.6919 12.4233C15.4675 11.1619 16.5542 10.1861 17.9519 9.49574C19.3496 8.8054 20.9604 8.46023 22.7843 8.46023C24.6593 8.46023 26.2914 8.79261 27.6806 9.45739C29.0783 10.1136 30.165 11.0256 30.9405 12.1932C31.7161 13.3608 32.1039 14.6989 32.1039 16.2074C32.1039 17.196 31.9078 18.1719 31.5158 19.1349C31.1323 20.098 30.4462 21.1676 29.4576 22.3438C28.4689 23.5114 27.0755 24.9134 25.2772 26.5497L21.4547 30.2955V30.4744H32.449V35H13.7843Z" fill="black"/>
</svg>
