<svg width="46" height="44" viewBox="0 0 46 44" fill="none" xmlns="http://www.w3.org/2000/svg">
<rect x="0.5" y="0.5" width="45" height="43" rx="21.5" fill="#FFD500" stroke="#FFD500"/>
<path d="M22.9345 35.358C21.0254 35.358 19.3251 35.0298 17.8336 34.3736C16.3507 33.7088 15.1788 32.7969 14.318 31.6378C13.4657 30.4702 13.0268 29.1236 13.0012 27.598H18.5751C18.6092 28.2372 18.818 28.7997 19.2015 29.2855C19.5936 29.7628 20.1135 30.1335 20.7612 30.3977C21.4089 30.6619 22.1376 30.794 22.9473 30.794C23.791 30.794 24.5368 30.6449 25.1845 30.3466C25.8322 30.0483 26.3393 29.6349 26.7058 29.1065C27.0723 28.5781 27.2555 27.9687 27.2555 27.2784C27.2555 26.5795 27.0595 25.9616 26.6674 25.4247C26.2839 24.8793 25.7299 24.4531 25.0055 24.1463C24.2896 23.8395 23.4373 23.6861 22.4487 23.6861H20.0069V19.6207H22.4487C23.2839 19.6207 24.0211 19.4759 24.6603 19.1861C25.3081 18.8963 25.8109 18.4957 26.1689 17.9844C26.5268 17.4645 26.7058 16.8594 26.7058 16.169C26.7058 15.5128 26.5481 14.9375 26.2328 14.4432C25.926 13.9403 25.4913 13.5483 24.9288 13.267C24.3748 12.9858 23.7271 12.8452 22.9856 12.8452C22.2356 12.8452 21.5495 12.9815 20.9274 13.2543C20.3052 13.5185 19.8066 13.8977 19.4316 14.392C19.0566 14.8864 18.8564 15.4659 18.8308 16.1307H13.5254C13.551 14.6222 13.9814 13.2926 14.8166 12.142C15.6518 10.9915 16.7768 10.0923 18.1916 9.4446C19.6149 8.78835 21.2214 8.46023 23.0112 8.46023C24.818 8.46023 26.399 8.78835 27.7541 9.4446C29.1092 10.1009 30.1618 10.9872 30.9118 12.1037C31.6703 13.2116 32.0453 14.456 32.0368 15.8366C32.0453 17.3026 31.5893 18.5256 30.6689 19.5057C29.7569 20.4858 28.568 21.108 27.1021 21.3722V21.5767C29.0282 21.8239 30.4941 22.4929 31.4998 23.5838C32.514 24.6662 33.0169 26.0213 33.0083 27.6491C33.0169 29.1406 32.5865 30.4659 31.7172 31.625C30.8564 32.7841 29.6674 33.696 28.1504 34.3608C26.6333 35.0256 24.8947 35.358 22.9345 35.358Z" fill="black"/>
</svg>
