<svg width="1320" height="455" viewBox="0 0 1320 455" fill="none" xmlns="http://www.w3.org/2000/svg">
<path d="M308 5C329.593 5 347 22.2908 347 43.5C347 64.7092 329.593 82 308 82C286.407 82 269 64.7092 269 43.5C269 22.2908 286.407 5 308 5Z" fill="white" stroke="#FFD500" stroke-width="10"/>
<path d="M266.214 44H30C16.1929 44 5 55.1929 5 69V425C5 438.807 16.1929 450 30 450H1290C1303.81 450 1315 438.807 1315 425V44.5783" stroke="#FFD500" stroke-width="10"/>
<g clip-path="url(#clip0_407_36)">
<path d="M308.5 22.9167V65.0834M318.292 30.5834H303.604C301.786 30.5834 300.043 31.2902 298.758 32.5482C297.472 33.8063 296.75 35.5126 296.75 37.2917C296.75 39.0709 297.472 40.7772 298.758 42.0353C300.043 43.2933 301.786 44.0001 303.604 44.0001H313.396C315.214 44.0001 316.957 44.7068 318.242 45.9649C319.528 47.223 320.25 48.9293 320.25 50.7084C320.25 52.4876 319.528 54.1939 318.242 55.4519C316.957 56.71 315.214 57.4167 313.396 57.4167H296.75" stroke="#FFD500" stroke-width="4" stroke-linecap="round" stroke-linejoin="round"/>
</g>
<defs>
<clipPath id="clip0_407_36">
<rect width="47" height="46" fill="white" transform="translate(285 21)"/>
</clipPath>
</defs>
</svg>
