<svg width="272" height="129" viewBox="0 0 272 129" fill="none" xmlns="http://www.w3.org/2000/svg">
<path d="M5.52412 84.3017L57.0825 3.77695H75.4473L95.0668 84.3017H76.588L61.0748 12.9798H68.3751L25.2577 84.3017H5.52412ZM26.8547 67.0464L34.3831 52.897H239.238L78.8083 64.6306L26.8547 67.0464Z" fill="#CFCFCF"/>
<path d="M117.182 85.2076C111.45 85.2076 106.531 83.9997 102.424 81.584C98.4033 79.082 95.5373 75.5015 93.8263 70.8425C92.1153 66.0973 91.9442 60.3168 93.313 53.501L100.884 21.9381L117.182 15.1942L109.354 53.1127C108.327 58.7207 108.84 63.1208 110.894 66.313C113.032 69.419 116.882 70.972 122.443 70.972C128.175 70.972 132.966 69.3327 136.815 66.0542C140.751 62.7757 143.36 57.7717 144.643 51.0421L151.647 19.7237L167.742 15.1942L154.139 84.3017H138.869L142.718 64.6306L145.285 70.8425C142.034 75.7603 137.928 79.3839 132.966 81.7134C128.089 84.0429 122.828 85.2076 117.182 85.2076Z" fill="#CFCFCF"/>
<path d="M182.841 85.2076C178.393 85.2076 174.543 84.2585 171.292 82.3605C168.126 80.3761 165.817 77.6153 164.362 74.0779C162.993 70.4543 162.78 66.1836 163.721 61.2659L175.378 3.77695L191.439 0L179.761 61.1364C179.248 64.3287 179.59 66.917 180.788 68.9013C181.986 70.8857 184.253 71.8779 187.589 71.8779C189.129 71.8779 190.669 71.6622 192.209 71.2308C193.834 70.7131 195.289 70.0229 196.572 69.1602L199.395 81.0663C197 82.6193 194.348 83.6977 191.439 84.3017C188.53 84.9056 185.664 85.2076 182.841 85.2076ZM159.101 28.6534L167.742 15.1942H207.165L204.657 28.6534H159.101Z" fill="#CFCFCF"/>
<path d="M225.221 85.2076C218.548 85.2076 212.688 83.9566 207.64 81.4546C202.678 78.8663 198.828 75.3289 196.091 70.8425C193.353 66.2699 191.984 60.9207 191.984 54.7951C191.984 47.0302 193.738 40.1281 197.246 34.0888C200.753 27.9631 205.544 23.1748 211.618 19.7237C217.778 16.1864 224.793 14.4177 232.664 14.4177C239.422 14.4177 245.282 15.6687 250.244 18.1707C255.292 20.5865 259.184 24.0807 261.922 28.6534C264.659 33.1397 266.028 38.4889 266.028 44.7008C266.028 52.3794 264.274 59.2815 260.767 65.4071C257.259 71.5328 252.426 76.3643 246.266 79.9016C240.192 83.4389 233.177 85.2076 225.221 85.2076ZM226.247 71.3602C230.867 71.3602 234.931 70.2818 238.438 68.1248C241.946 65.8816 244.726 62.8188 246.779 58.9364C248.833 55.0539 249.859 50.5676 249.859 45.4773C249.859 40.1281 248.276 35.9006 245.111 32.7946C241.946 29.6887 237.497 28.1357 231.765 28.1357C227.231 28.1357 223.167 29.2573 219.574 31.5005C216.067 33.6574 213.286 36.6771 211.233 40.5595C209.18 44.442 208.153 48.9283 208.153 54.0186C208.153 59.4541 209.736 63.7247 212.901 66.8307C216.067 69.8504 220.515 71.3602 226.247 71.3602Z" fill="#CFCFCF"/>
<path d="M0 128.346V95.6325H14.8287C17.7945 95.6325 20.3432 96.1154 22.4748 97.0813C24.6373 98.0471 26.3055 99.4491 27.4795 101.287C28.6534 103.094 29.2404 105.244 29.2404 107.736C29.2404 110.198 28.6534 112.332 27.4795 114.139C26.3055 115.946 24.6373 117.348 22.4748 118.345C20.3432 119.311 17.7945 119.794 14.8287 119.794H5.09738L9.17528 115.774V128.346H0ZM9.17528 116.756L5.09738 112.503H14.2727C16.188 112.503 17.6091 112.083 18.5359 111.241C19.4936 110.4 19.9724 109.232 19.9724 107.736C19.9724 106.21 19.4936 105.026 18.5359 104.185C17.6091 103.343 16.188 102.923 14.2727 102.923H5.09738L9.17528 98.6702V116.756Z" fill="#CFCFCF"/>
<path d="M30.9336 128.346V95.6325H45.7623C48.7281 95.6325 51.2768 96.1154 53.4084 97.0813C55.5709 98.0471 57.2392 99.4491 58.4131 101.287C59.587 103.094 60.174 105.244 60.174 107.736C60.174 110.198 59.587 112.332 58.4131 114.139C57.2392 115.915 55.5709 117.286 53.4084 118.251C51.2768 119.186 48.7281 119.653 45.7623 119.653H36.031L40.1089 115.774V128.346H30.9336ZM50.9987 128.346L42.9356 116.429H52.7133L60.8228 128.346H50.9987ZM40.1089 116.756L36.031 112.503H45.2063C47.1216 112.503 48.5427 112.083 49.4695 111.241C50.4272 110.4 50.9061 109.232 50.9061 107.736C50.9061 106.21 50.4272 105.026 49.4695 104.185C48.5427 103.343 47.1216 102.923 45.2063 102.923H36.031L40.1089 98.6702V116.756Z" fill="#CFCFCF"/>
<path d="M70.8894 108.297H85.9498V115.214H70.8894V108.297ZM71.5381 121.196H88.4985V128.346H62.4555V95.6325H87.8961V102.783H71.5381V121.196Z" fill="#CFCFCF"/>
<path d="M90.8097 128.346V95.6325H98.3631L111.802 117.878H107.816L120.884 95.6325H128.438L128.53 128.346H120.096L120.004 108.578H121.44L111.663 125.121H107.585L97.5289 108.578H99.2898V128.346H90.8097Z" fill="#CFCFCF"/>
<path d="M132.242 128.346V95.6325H141.417V128.346H132.242Z" fill="#CFCFCF"/>
<path d="M160.133 129C155.344 129 151.606 127.676 148.918 125.028C146.231 122.379 144.887 118.625 144.887 113.765V95.6325H154.062V113.485C154.062 116.289 154.603 118.298 155.684 119.513C156.796 120.728 158.31 121.336 160.225 121.336C162.141 121.336 163.639 120.728 164.72 119.513C165.801 118.298 166.342 116.289 166.342 113.485V95.6325H175.378V113.765C175.378 118.625 174.034 122.379 171.347 125.028C168.659 127.676 164.921 129 160.133 129Z" fill="#CFCFCF"/>
<path d="M178.814 128.346V95.6325H186.367L199.806 117.878H195.82L208.888 95.6325H216.442L216.534 128.346H208.1L208.008 108.578H209.444L199.667 125.121H195.589L185.533 108.578H187.294V128.346H178.814Z" fill="#CFCFCF"/>
<path d="M223.49 128.346L236.141 99.0441L238.597 102.97H222.146L225.9 98.7169V108.017H218.068V95.6325H244.945V101.427L233.499 128.346H223.49Z" fill="#CFCFCF"/>
<path d="M256.94 94.9783C259.998 94.9783 262.639 95.5858 264.864 96.8009C267.119 98.0159 268.864 99.8229 270.1 102.222C271.367 104.59 272 107.549 272 111.101C272 114.902 271.259 118.142 269.776 120.822C268.324 123.47 266.3 125.495 263.705 126.897C261.141 128.299 258.144 129 254.715 129C252.923 129 251.193 128.782 249.525 128.346C247.857 127.941 246.42 127.364 245.216 126.617L248.552 119.981C249.479 120.635 250.437 121.087 251.425 121.336C252.445 121.554 253.48 121.663 254.53 121.663C257.032 121.663 259.025 120.9 260.508 119.373C261.991 117.846 262.732 115.619 262.732 112.69C262.732 112.16 262.732 111.615 262.732 111.054C262.732 110.463 262.686 109.871 262.593 109.279L264.864 111.195C264.308 112.347 263.582 113.313 262.686 114.092C261.79 114.871 260.739 115.463 259.535 115.868C258.33 116.273 256.955 116.476 255.41 116.476C253.371 116.476 251.502 116.055 249.803 115.214C248.135 114.341 246.791 113.142 245.772 111.615C244.752 110.057 244.242 108.235 244.242 106.147C244.242 103.873 244.814 101.91 245.957 100.259C247.1 98.5767 248.629 97.2838 250.545 96.3803C252.46 95.4456 254.592 94.9783 256.94 94.9783ZM257.542 101.568C256.677 101.568 255.92 101.739 255.271 102.082C254.623 102.424 254.097 102.907 253.696 103.53C253.325 104.122 253.14 104.855 253.14 105.727C253.14 106.973 253.541 107.97 254.345 108.718C255.179 109.466 256.26 109.839 257.588 109.839C258.484 109.839 259.272 109.668 259.952 109.325C260.631 108.983 261.156 108.5 261.527 107.877C261.898 107.254 262.083 106.521 262.083 105.68C262.083 104.87 261.898 104.169 261.527 103.577C261.156 102.954 260.631 102.471 259.952 102.128C259.272 101.755 258.469 101.568 257.542 101.568Z" fill="#CFCFCF"/>
</svg>
