<svg width="35" height="35" viewBox="0 0 35 35" fill="none" xmlns="http://www.w3.org/2000/svg">
<path d="M21.5749 7.5C23.04 7.78585 24.3865 8.50239 25.442 9.5579C26.4975 10.6134 27.2141 11.9599 27.4999 13.425M21.5749 1.5C24.6188 1.83815 27.4573 3.20126 29.6243 5.36551C31.7912 7.52976 33.1579 10.3665 33.4999 13.41M31.9999 25.38V29.88C32.0016 30.2978 31.916 30.7113 31.7487 31.094C31.5813 31.4768 31.3358 31.8204 31.028 32.1028C30.7202 32.3852 30.3568 32.6002 29.961 32.7341C29.5653 32.8679 29.146 32.9176 28.7299 32.88C24.1142 32.3785 19.6804 30.8012 15.7849 28.275C12.1606 25.972 9.0879 22.8993 6.7849 19.275C4.24987 15.3618 2.67226 10.9065 2.1799 6.27C2.14242 5.8552 2.19171 5.43714 2.32465 5.04244C2.45759 4.64773 2.67126 4.28503 2.95205 3.97743C3.23284 3.66983 3.57461 3.42406 3.95559 3.25578C4.33657 3.0875 4.74841 3.00039 5.1649 3H9.6649C10.3929 2.99284 11.0986 3.25062 11.6505 3.7253C12.2025 4.19998 12.563 4.85917 12.6649 5.58C12.8548 7.0201 13.2071 8.43409 13.7149 9.795C13.9167 10.3319 13.9604 10.9154 13.8408 11.4763C13.7211 12.0373 13.4432 12.5522 13.0399 12.96L11.1349 14.865C13.2702 18.6203 16.3796 21.7297 20.1349 23.865L22.0399 21.96C22.4477 21.5567 22.9626 21.2788 23.5236 21.1591C24.0845 21.0395 24.668 21.0832 25.2049 21.285C26.5658 21.7928 27.9798 22.1451 29.4199 22.335C30.1485 22.4378 30.814 22.8048 31.2897 23.3662C31.7654 23.9277 32.0182 24.6444 31.9999 25.38Z" stroke="#757575" stroke-width="4" stroke-linecap="round" stroke-linejoin="round"/>
</svg>
