<svg width="60" height="60" viewBox="0 0 60 60" fill="none" xmlns="http://www.w3.org/2000/svg">
<circle cx="30" cy="30" r="30" fill="#00FF1E"/>
<path d="M39.1225 33.5387C38.6713 33.325 36.51 32.2562 36.1063 32.09C35.7025 31.9237 35.4175 31.8762 35.1088 32.3275C34.8 32.7787 33.9688 33.7525 33.7075 34.0612C33.4463 34.37 33.2088 34.3937 32.7575 34.0612C31.4615 33.5411 30.2644 32.802 29.2188 31.8762C28.2722 30.985 27.4709 29.9513 26.8438 28.8125C26.5825 28.385 26.8438 28.1475 27.0338 27.91C27.2238 27.6725 27.4613 27.4112 27.6988 27.15C27.8725 26.924 28.0162 26.6766 28.1263 26.4137C28.1852 26.2915 28.2158 26.1575 28.2158 26.0218C28.2158 25.8861 28.1852 25.7522 28.1263 25.63C28.1263 25.4162 27.1288 23.255 26.7488 22.3762C26.3688 21.4975 26.0363 21.6162 25.775 21.6162H24.825C24.3725 21.6339 23.9454 21.8303 23.6375 22.1625C23.1406 22.6367 22.747 23.2084 22.4813 23.8419C22.2157 24.4754 22.0837 25.1569 22.0938 25.8437C22.2153 27.5299 22.8353 29.1419 23.875 30.475C25.7831 33.3094 28.3934 35.6006 31.4513 37.125C32.4963 37.5762 33.3038 37.8375 33.945 38.0512C34.8455 38.3234 35.7973 38.3803 36.7238 38.2175C37.3391 38.0926 37.9223 37.8427 38.4371 37.4832C38.9518 37.1237 39.3872 36.6622 39.7163 36.1275C39.9902 35.4671 40.0804 34.7449 39.9775 34.0375C39.8588 33.8712 39.5738 33.7525 39.1225 33.5387Z" fill="white"/>
<path d="M43.5639 17.3651C41.9214 15.7071 39.9635 14.3948 37.8057 13.5055C35.6479 12.6163 33.3339 12.1682 31.0001 12.1876C27.9086 12.2038 24.8754 13.0308 22.2035 14.5861C19.5315 16.1414 17.3145 18.3704 15.7736 21.0507C14.2328 23.7309 13.4221 26.7685 13.4226 29.8601C13.4231 32.9517 14.2347 35.9891 15.7764 38.6689L13.4014 47.8126L22.7589 45.4376C25.3458 46.8453 28.245 47.5803 31.1901 47.5751H31.0001C34.5102 47.598 37.9475 46.5749 40.8738 44.6364C43.8001 42.6979 46.0827 39.9317 47.4306 36.6907C48.7785 33.4497 49.1305 29.8807 48.4418 26.4388C47.7532 22.9968 46.055 19.838 43.5639 17.3651ZM31.0001 44.5351C28.3652 44.5372 25.7792 43.823 23.5189 42.4689L22.9964 42.1601L17.4389 43.6089L18.9114 38.1939L18.5789 37.6476C16.6821 34.593 15.9726 30.9483 16.5849 27.4052C17.1973 23.8621 19.0889 20.667 21.9009 18.4262C24.7129 16.1854 28.2497 15.0548 31.8401 15.2488C35.4305 15.4428 38.8247 16.9481 41.3789 19.4789C42.7481 20.8371 43.8334 22.4543 44.5715 24.2362C45.3095 26.018 45.6855 27.929 45.6776 29.8576C45.6713 33.7484 44.1229 37.478 41.3717 40.2292C38.6205 42.9804 34.8909 44.5288 31.0001 44.5351Z" fill="white"/>
</svg>
