<svg width="26" height="26" viewBox="0 0 26 26" fill="none" xmlns="http://www.w3.org/2000/svg">
<g clip-path="url(#clip0_101_8)">
<path d="M18.5574 15.4213C18.2486 15.275 16.7699 14.5438 16.4936 14.43C16.2174 14.3163 16.0224 14.2837 15.8111 14.5925C15.5999 14.9012 15.0311 15.5675 14.8524 15.7788C14.6736 15.99 14.5111 16.0063 14.2024 15.7788C13.3156 15.4229 12.4966 14.9172 11.7811 14.2838C11.1335 13.674 10.5852 12.9667 10.1561 12.1875C9.97738 11.895 10.1561 11.7325 10.2861 11.57C10.4161 11.4075 10.5786 11.2288 10.7411 11.05C10.86 10.8954 10.9583 10.7261 11.0336 10.5462C11.0739 10.4626 11.0949 10.371 11.0949 10.2781C11.0949 10.1853 11.0739 10.0936 11.0336 10.01C11.0336 9.86375 10.3511 8.385 10.0911 7.78375C9.83113 7.1825 9.60363 7.26375 9.42488 7.26375H8.77488C8.46524 7.27582 8.17303 7.41024 7.96238 7.6375C7.62236 7.96197 7.35303 8.35317 7.17127 8.78659C6.98952 9.22002 6.89925 9.68631 6.90613 10.1563C6.98925 11.31 7.41346 12.4129 8.12488 13.325C9.43036 15.2643 11.2164 16.832 13.3086 17.875C14.0236 18.1838 14.5761 18.3625 15.0149 18.5088C15.631 18.695 16.2822 18.7339 16.9161 18.6225C17.3372 18.5371 17.7361 18.3661 18.0884 18.1201C18.4406 17.8741 18.7385 17.5584 18.9636 17.1925C19.151 16.7407 19.2128 16.2466 19.1424 15.7625C19.0611 15.6488 18.8661 15.5675 18.5574 15.4213Z" fill="black"/>
<path d="M21.5962 4.355C20.4724 3.22056 19.1328 2.32265 17.6564 1.71424C16.1801 1.10582 14.5968 0.799211 13 0.8125C10.8847 0.823569 8.80937 1.38943 6.98122 2.45356C5.15307 3.51769 3.63611 5.04285 2.58185 6.8767C1.52759 8.71056 0.972926 10.7889 0.973257 12.9042C0.973589 15.0195 1.5289 17.0977 2.58374 18.9312L0.95874 25.1875L7.36124 23.5625C9.13125 24.5256 11.1149 25.0285 13.13 25.025H13C15.4016 25.0406 17.7535 24.3407 19.7557 23.0143C21.7579 21.6879 23.3197 19.7953 24.2419 17.5778C25.1641 15.3602 25.405 12.9183 24.9338 10.5633C24.4626 8.20828 23.3007 6.04699 21.5962 4.355ZM13 22.945C11.1971 22.9464 9.4278 22.4578 7.88124 21.5312L7.52374 21.32L3.72124 22.3112L4.72874 18.6062L4.50124 18.2325C3.20344 16.1425 2.71798 13.6488 3.13697 11.2246C3.55595 8.80032 4.85023 6.61421 6.77424 5.08103C8.69824 3.54784 11.1181 2.77423 13.5747 2.90699C16.0313 3.03975 18.3537 4.06964 20.1012 5.80125C21.0381 6.73057 21.7807 7.83706 22.2856 9.05624C22.7906 10.2754 23.0479 11.5829 23.0425 12.9025C23.0382 15.5646 21.9788 18.1165 20.0964 19.9989C18.214 21.8813 15.6621 22.9407 13 22.945Z" fill="black"/>
</g>
<defs>
<clipPath id="clip0_101_8">
<rect width="26" height="26" fill="white"/>
</clipPath>
</defs>
</svg>
